<?xml version="1.0" encoding="UTF-8" standalone="no"?>
<!-- Created with Inkscape (http://www.inkscape.org/) -->

<svg
   width="34.337406mm"
   height="6.8475876mm"
   viewBox="0 0 34.337406 6.8475876"
   version="1.1"
   id="svg1"
   xml:space="preserve"
   xmlns:inkscape="http://www.inkscape.org/namespaces/inkscape"
   xmlns:sodipodi="http://sodipodi.sourceforge.net/DTD/sodipodi-0.dtd"
   xmlns="http://www.w3.org/2000/svg"
   xmlns:svg="http://www.w3.org/2000/svg"><sodipodi:namedview
     id="namedview1"
     pagecolor="#ffffff"
     bordercolor="#000000"
     borderopacity="0.25"
     inkscape:showpageshadow="2"
     inkscape:pageopacity="0.0"
     inkscape:pagecheckerboard="0"
     inkscape:deskcolor="#d1d1d1"
     inkscape:document-units="mm"
     inkscape:zoom="8.0630807"
     inkscape:cx="456.15319"
     inkscape:cy="217.90679"
     inkscape:window-width="1920"
     inkscape:window-height="1009"
     inkscape:window-x="-8"
     inkscape:window-y="-8"
     inkscape:window-maximized="1"
     inkscape:current-layer="layer1" /><defs
     id="defs1" /><g
     inkscape:label="Camada 1"
     inkscape:groupmode="layer"
     id="layer1"
     transform="translate(-111.2833,-52.097315)"><g
       id="g6"
       transform="matrix(0.14830599,0,0,0.14830599,89.843106,43.315585)"
       inkscape:export-filename="light-logo.svg"
       inkscape:export-xdpi="296.07166"
       inkscape:export-ydpi="296.07166"
       style="fill:#5d87ff;fill-opacity:1;stroke:#5d87ff;stroke-opacity:1"><path
         style="opacity:1;fill:#5d87ff;fill-opacity:1;stroke:#5d87ff;stroke-width:0.3;stroke-linecap:round;stroke-dasharray:none;stroke-opacity:1"
         d="m 144.71158,94.674379 c 5.00113,17.491971 25.34004,9.294121 35.56874,3.428434 15.17256,-10.211975 22.6309,-21.339776 19.27026,-33.620278 -1.46825,22.876505 -42.83234,47.712605 -54.839,30.191844 z"
         id="path1"
         sodipodi:nodetypes="cccc" /><path
         style="opacity:1;fill:#5d87ff;fill-opacity:1;stroke:#5d87ff;stroke-width:0.3;stroke-linecap:round;stroke-dasharray:none;stroke-opacity:1"
         d="m 165.98003,72.719333 1.16655,9.802792 24.54604,-14.038101 -21.16618,8.607356 c -0.47546,0.1856 -0.61914,0.03942 -0.7055,-0.164071 l -0.44299,-4.922125 c -0.68005,-0.855861 -3.20727,-0.922257 -3.39792,0.714149 z"
         id="path2"
         sodipodi:nodetypes="ccccccc" /><path
         style="opacity:1;fill:#5d87ff;fill-opacity:1;stroke:#5d87ff;stroke-width:0.919215;stroke-linecap:round;stroke-dasharray:none;stroke-opacity:1"
         d="m 162.37311,94.872589 -2.824,4.240819"
         id="path3" /><path
         style="opacity:1;fill:#5d87ff;fill-opacity:1;stroke:#5d87ff;stroke-width:0.1;stroke-linecap:round;stroke-dasharray:none;stroke-opacity:1"
         d="m 188.16574,79.018243 c -0.25609,-0.184465 0.74081,-1.157142 0.97453,-1.102149 l 3.89813,0.05801 c 0.0559,0.251204 0.30633,0.429434 -0.82371,1.125352 z"
         id="path4"
         sodipodi:nodetypes="ccccc" /><path
         style="opacity:1;fill:#5d87ff;fill-opacity:1;stroke:#5d87ff;stroke-width:0.1;stroke-linecap:round;stroke-dasharray:none;stroke-opacity:1"
         d="m 152.51966,79.076639 c 1.00084,0.106646 3.77432,-0.0013 3.83926,0.0082 0.4636,0.06774 1.29243,-1.075822 0.67269,-1.181309 h -3.74082 c -0.39955,0.05291 -0.64695,0.303627 -0.82855,0.639876 -0.0326,0.177744 -0.0599,0.355489 0.0574,0.533233 z"
         id="path5"
         sodipodi:nodetypes="cscccc" /><path
         style="opacity:1;fill:#5d87ff;fill-opacity:1;stroke:#5d87ff;stroke-width:0.1;stroke-linecap:round;stroke-dasharray:none;stroke-opacity:1"
         d="m 182.29535,63.796991 2.81918,-4.176562 c 0.66736,-0.704427 0.98681,-0.189755 1.03254,0.04641 l -2.64516,3.944532 c -0.37722,0.398859 -0.76792,0.615827 -1.20656,0.18562 z"
         id="path6"
         sodipodi:nodetypes="ccccc" /></g><text
       xml:space="preserve"
       style="font-size:3.65758px;line-height:1.6;font-family:HULifeStyle_m;-inkscape-font-specification:HULifeStyle_m;letter-spacing:0.691283px;word-spacing:0.018288px;opacity:1;fill:#11142d;fill-opacity:1;stroke:#11142d;stroke-width:0.238;stroke-linecap:round;stroke-dasharray:none;stroke-opacity:1"
       x="123.63334"
       y="55.782398"
       id="text6"
       transform="scale(0.97143,1.0294103)"><tspan
         sodipodi:role="line"
         id="tspan6"
         style="font-style:normal;font-variant:normal;font-weight:normal;font-stretch:normal;font-family:Carlito;-inkscape-font-specification:Carlito;fill:#11142d;fill-opacity:1;stroke:#11142d;stroke-width:0.238;stroke-dasharray:none;stroke-opacity:1"
         x="123.63334"
         y="55.782398"><tspan
   style="font-size:4.7625px;stroke-width:0.238;stroke-dasharray:none"
   id="tspan7">S</tspan>MARTCLASS</tspan></text></g></svg>
